<?xml version="1.0" encoding="UTF-8"?>
<svg width="36px" height="36px" viewBox="0 0 36 36" version="1.1" xmlns="http://www.w3.org/2000/svg" xmlns:xlink="http://www.w3.org/1999/xlink">
    <!-- Generator: Sketch 52.6 (67491) - http://www.bohemiancoding.com/sketch -->
    <title>3wm-logo</title>
    <desc>Created with Sketch.</desc>
    <defs>
        <polygon id="path-1" points="5.625e-05 0.185950413 35.989875 0.185950413 35.989875 35.8783326 5.625e-05 35.8783326"></polygon>
    </defs>
    <g id="Page-1" stroke="none" stroke-width="1" fill="none" fill-rule="evenodd">
        <g id="3wm-logo">
            <path d="M13.84095,18.4998347 C13.3932,18.0544835 12.5038875,17.8317149 11.1726375,17.8317149 L8.1137625,17.8317149 L7.5e-05,17.8317149 L7.5e-05,20.3366529 L12.982575,20.3366529 L14.543325,20.3366529 C14.522325,19.5573347 14.2881375,18.945 13.84095,18.4998347" id="Fill-1" fill="#3F87F5"></path>
            <path d="M0,24.0101591 L0,26.6262955 L8.1136875,26.6262955 L11.1725625,26.6262955 C12.504,26.6262955 13.3933125,26.4037128 13.840875,25.9583616 C14.28825,25.5131963 14.52225,24.8640434 14.54325,24.0101591 L12.9826875,24.0101591 L0,24.0101591 Z" id="Fill-3" fill="#3F87F5"></path>
            <mask id="mask-2" fill="white">
                <use xlink:href="#path-1"></use>
            </mask>
            <g id="Clip-6"></g>
            <path d="M33.7399312,0.185894628 L2.25005625,0.185894628 C1.00730625,0.185894628 5.625e-05,1.1850062 5.625e-05,2.41729959 L5.625e-05,14.1582087 L5.58568125,14.1582087 L13.5758062,14.1582087 C15.9893062,14.1582087 17.6642437,14.543126 18.6006187,15.3131467 C19.5369937,16.0831674 20.0051812,17.2472169 20.0051812,18.8058533 L20.0051812,25.6523616 C20.0051812,27.210626 19.5369937,28.3752335 18.6006187,29.1450682 C17.6644312,29.9150888 15.9891187,30.2998202 13.5758062,30.2998202 L5.58568125,30.2998202 L5.625e-05,30.2998202 L5.625e-05,33.6469277 C5.625e-05,34.879407 1.00730625,35.8783326 2.25005625,35.8783326 L33.7399312,35.8783326 C34.9824937,35.8783326 35.9899312,34.879407 35.9899312,33.6469277 L35.9899312,2.41729959 C35.9899312,1.1850062 34.9824937,0.185894628 33.7399312,0.185894628" id="Fill-5" fill="#3F87F5" mask="url(#mask-2)"></path>
        </g>
    </g>
</svg>